<svg width="512" height="512" viewBox="0 0 512 512" fill="none" xmlns="http://www.w3.org/2000/svg">
<rect width="512" height="512" fill="white"/>
<path d="M218.32 216.744C211.024 226.728 205.36 236.616 201.328 246.408C197.296 256.2 195.28 267.432 195.28 280.104C195.28 294.888 198.928 305.736 206.224 312.648C213.712 319.56 222.736 324.072 233.296 326.184V253.608C233.296 235.176 238.576 221.256 249.136 211.848C259.696 202.248 273.136 197.448 289.456 197.448C310.384 197.448 326.896 204.264 338.992 217.896C351.088 231.528 357.136 250.152 357.136 273.768C357.136 291.624 353.2 306.6 345.328 318.696C337.456 330.792 327.088 340.104 314.224 346.632C301.552 353.16 287.824 357.192 273.04 358.728V426.12H233.296V358.728C218.32 357 204.88 353.256 192.976 347.496C181.264 341.544 171.952 333 165.04 321.864C158.32 310.728 154.96 296.52 154.96 279.24C154.96 262.728 157.936 247.752 163.888 234.312C169.84 220.872 177.616 208.296 187.216 196.584L218.32 216.744ZM290.032 228.552C284.656 228.552 280.432 230.472 277.36 234.312C274.48 237.96 273.04 244.296 273.04 253.32V326.184C286.096 325.032 296.464 319.656 304.144 310.056C312.016 300.456 315.952 288.456 315.952 274.056C315.952 265.8 315.088 258.216 313.36 251.304C311.824 244.392 309.136 238.92 305.296 234.888C301.648 230.664 296.56 228.552 290.032 228.552Z" fill="#0061FE"/>
<path d="M237.376 179.28C228.736 179.28 221.632 176.784 216.064 171.792C210.688 166.608 208 160.272 208 152.784C208 145.104 210.688 138.768 216.064 133.776C221.632 128.592 228.736 126 237.376 126C245.824 126 252.736 128.592 258.112 133.776C263.68 138.768 266.464 145.104 266.464 152.784C266.464 160.272 263.68 166.608 258.112 171.792C252.736 176.784 245.824 179.28 237.376 179.28Z" fill="#0061FE"/>
</svg>
